<svg t="1711026881883" class="icon" viewBox="0 0 1024 1024" version="1.1"
     xmlns="http://www.w3.org/2000/svg" p-id="2479" width="16" height="16">
    <path d="M335.5 496h240v48h-240z" fill="#FFFFFF" p-id="2480"></path>
    <path d="M752.5 136h-481c-48.523 0-88 39.477-88 88v576c0 48.523 39.477 88 88 88h481c48.523 0 88-39.477 88-88V224c0-48.523-39.477-88-88-88z m-171 48h117v143.249l-40.561-25.193c-5.533-3.437-11.735-5.155-17.939-5.155-6.202 0-12.407 1.718-17.939 5.154L581.5 327.248V184z m211 616c0 22.056-17.944 40-40 40h-481c-22.056 0-40-17.944-40-40V224c0-22.056 17.944-40 40-40h266v161.231a34.019 34.019 0 0 0 17.477 29.715 33.976 33.976 0 0 0 16.521 4.282 33.979 33.979 0 0 0 17.94-5.115L640 342.709l50.561 31.404a34.025 34.025 0 0 0 34.464 0.832 34.021 34.021 0 0 0 17.476-29.714V184h10c22.056 0 40 17.944 40 40v576z"
          fill="#FD973F" p-id="2481"></path>
    <path d="M335.5 663h368.71v48H335.5z" fill="#FFFFFF" p-id="2482"></path>
</svg>