<svg t="1713451777738" class="icon" viewBox="0 0 1024 1024" version="1.1" xmlns="http://www.w3.org/2000/svg" p-id="6016"
     width="16" height="16">
    <path d="M637.952 152.576l-3.072 1.024 3.072-1.024z m-184.832-29.184l5.12 13.312c10.24-4.096 16.384 1.024 20.48-8.192 7.168 9.216 20.48 3.072 31.232 3.072 0 0-6.144-5.12-3.072-7.168 5.12 2.048 8.192 1.024 9.216 4.096-7.168 3.072-5.12-2.048-8.192-1.024 3.072 7.168 11.264 7.168 20.48 3.072-0.512-2.56 0-5.632 1.024-8.192-3.072 1.024-3.072 1.024-5.12-2.048l-3.072-7.168c-5.632 6.144-15.36 7.168-21.504 1.536l-0.512-0.512c-3.072 1.024-2.048 5.12-2.048 5.12-2.048-6.144-11.264 0-13.312 4.096 1.024-9.216-11.264 6.144-17.92 5.12-2.56-5.632-4.608-5.632-4.608-7.68-2.048 1.024-4.608-2.048-8.192 2.56m70.656-1.024c0 1.024 2.048 3.072 0 4.096-2.048 0.512-4.096-0.512-5.12-2.048l5.12-2.048z m29.184-9.216c-7.168 3.072-8.192 0-15.36 3.072 3.072 7.168 8.192 1.024 7.168 9.216l-6.144 2.048 3.072 7.168c5.12 2.048 2.048-5.12 7.168-11.264 3.072 7.168 9.216 4.096 14.336 6.144 2.048-5.12-9.216-4.096-7.168-9.216 0 0-3.072 1.024-3.072-7.168m-105.984 13.312c-7.168 2.048-3.072 7.168-4.096 9.216 1.024 0 2.048 0 3.072-1.024-1.024-3.072 2.048-5.12 1.024-8.192m535.04 250.88c2.048 8.192 1.024 17.92 7.168 26.112 3.072-2.56 7.68-2.048 10.24 1.024-3.072 2.048-5.12-1.024-10.24 4.096 4.096 10.24 1.024 17.92 5.12 28.16 5.12 1.024 8.192-2.048 10.24 1.024-3.072 2.048-1.024 5.12-1.024 10.24-13.312 6.144-7.168 18.944-1.024 33.28-5.12 4.096 4.096 10.24-4.096 12.288 4.096 5.12 5.12 1.024 7.168 3.072-2.048 1.024-1.024 4.096-1.024 5.12 4.096-1.024 10.24-10.24 14.336-6.144 0-3.584 1.024-7.168 2.048-10.24-3.072 2.048-5.12 4.096-8.192 2.048l5.12-4.096c-1.024-17.92 1.024-38.4-4.096-56.832-10.24 4.096-4.096-10.24-14.336-12.288 3.072-2.048 1.024-5.12 3.072-7.168 2.048 8.192 4.096 5.12 10.24 1.024-5.12-4.608-6.656-11.776-4.096-17.92-1.024 1.536-2.56 2.048-4.096 2.048-2.048-3.072 1.024-5.12 6.144-9.216-7.168-8.192-8.192-21.504-12.288-31.232-5.12 4.096-1.024 10.24-4.096 12.288-4.096-5.12 1.024-5.12-2.048-8.192-3.072-0.512-5.632 0-8.192 2.048-2.56-5.12 0-11.264 5.12-13.824 0.512-0.512 1.536-0.512 2.048-0.512-1.536 1.024-2.048 3.584-1.024 5.12 5.12-4.096 3.072-7.168 6.144-9.216-7.168-3.072-4.096-10.24-8.192-16.384-5.12 4.096-8.192 2.048-10.24 4.096 1.024-5.12 1.024-5.12 6.144-9.216l-4.096-6.144c5.12 1.024 3.072-2.048 5.12-4.096-6.656-8.704-11.776-18.432-15.36-29.184-3.072 2.048-8.192 2.048-10.24 4.096l-4.096-5.12-8.192 7.168c4.096 5.12 7.168 3.072 9.216 6.144l-5.12 4.096c13.312 21.504 16.384 42.496 24.064 63.488l3.072-2.048c-5.12 4.096 7.168 8.192-1.024 10.24 2.048 1.536 4.096 3.072 5.632 5.12 1.024-1.536 2.048-3.072 3.584-1.024l2.048 3.072c-1.536 0.512-3.584 0-5.12-0.512v1.536c-0.512 0-0.512 0-1.536 2.56z m19.968 40.96l4.096 5.12-5.12 5.12c1.024-5.12-2.048-8.192 1.024-10.24zM972.8 326.656c-2.048-3.072-4.096-5.12-2.048-8.192 1.024 1.536 3.584 2.048 5.12 1.024-2.048 2.048 0 5.12-3.072 7.168z m-8.192-16.384c-2.048-8.192 6.144-9.216 12.288-14.336 6.144 8.192-6.144 10.24-12.288 14.336z m25.088 77.312c2.048 3.072 8.192-2.048 10.24 1.024l-6.144 4.096c1.024-5.12-5.12-1.024-9.216-6.144 3.584-2.56 3.584-2.56 5.12 1.024z"
          fill="#FFAA33" p-id="6017"></path>
    <path d="M460.288 120.832c0.512 0 0.512-1.024 0.512-2.56-0.512 1.024-0.512 1.536-0.512 2.56M419.84 141.824l-1.024-1.024c7.168-2.048 14.336-3.584 21.504-5.12l-4.096-10.24c-12.288 3.584-24.576 6.144-37.376 8.192-2.048 5.12-1.024 8.192-7.168 11.264l-2.56-7.168-7.168 3.072c6.144 5.12 1.024 3.072 3.072 7.168 3.072-1.024 12.288 3.072 13.312-5.12 6.144 5.12 17.92-3.072 21.504-1.024m7.168-11.264l1.024 3.072c-2.048 5.12-10.24 4.096-9.216 7.168-3.072-5.12 5.12-11.264 8.192-10.24z m146.944-11.264c-7.168 3.072-11.264-7.168-18.944 0 6.144 5.12 9.216 4.096 14.336 6.144-2.048 6.144-5.12 7.168-4.096 10.24 5.12-2.56 11.264-2.048 16.384 1.024 1.536-4.096 5.12-6.656 9.216-7.168-5.12-2.048-5.12-2.048-3.072-7.168-7.168 3.072-5.12-2.048-8.192-1.024-1.024 2.56-1.536 5.632-1.024 8.192-8.704-1.024-3.584-7.168-4.608-10.24m93.184 42.496c3.072-1.024 2.048-3.072 3.072-7.168l-5.12 2.048-5.12 2.048c0 3.072 3.072 2.048 7.168 3.072z m6.144 3.072c4.096-2.048 1.024-5.12 6.144-5.12 1.024-5.12-5.12 0-6.144-2.048 1.024 2.048-2.048 1.024 0 7.168z m63.488-119.296l-6.144 4.096 4.096 5.12c3.072-1.536 4.096-5.12 2.56-8.192 0-0.512-0.512-0.512-0.512-1.024m-121.344 99.84c4.096 1.024 13.312-5.12 17.92-1.024-5.12-5.12 1.024-8.192 0-10.24-5.632 2.048-11.264 3.584-17.408 4.096 2.56 5.632-6.656 3.584-0.512 7.168m22.528-4.608c-0.512 0-0.512 0.512-1.024 0.512 0.512 0 0.512 0 1.024 0.512-1.024 3.584-1.024 7.168 0 10.752l4.096-1.536-3.584-8.192c3.584 1.024 6.656 3.072 9.216 6.144-3.072 1.536-5.12 5.632-4.096 9.216 3.072-1.024 10.24-4.096 12.288 3.072 3.072-5.12 3.584-11.264 1.024-16.384-2.56 8.704-10.24-8.704-18.944-4.096m128.512-75.264c-5.12 1.024-4.096 4.096-3.072 6.144 1.024-2.048 10.24-2.56 3.072-6.144M375.808 143.872l-13.312 5.12c1.024 3.072 5.12 5.12 3.072 6.144 1.536 2.048 2.56 4.608 2.048 7.168l13.312-5.12c-1.024-3.072-8.192-1.024-9.216-4.096 2.048-5.12 5.12-6.656 4.096-9.216m318.976-110.592l4.096 5.12 5.12-4.096-4.096-6.144c-3.072 2.048-9.728 4.096-5.12 5.12m-8.192-3.584c-2.048-3.072-5.12-1.024-10.24-1.024-1.024 5.12-5.12 4.096-1.024 10.24l11.264-9.216z"
          fill="#FFAA33" p-id="6018"></path>
    <path d="M599.552 133.632l-3.072-7.168c-7.168 3.072-5.12-2.048-8.192-1.024-2.048 5.12 5.12 2.048 6.144 5.12s-2.048 5.12-1.024 8.192c3.072-1.024 1.024 3.072 6.144 5.12 7.168-3.072 8.192 1.024 11.264-1.024 3.072-1.024 1.024-8.192 5.12-6.144l-3.072-7.168c-2.56 4.096-8.192-2.048-13.312 4.096m164.352-60.416v1.024c0.512 0.512-0.512-0.512 0-1.024z m9.216 135.168L417.28 352.768l26.112 11.264 337.408-136.192-7.68-19.456z m235.52 296.96c0-0.512 0-0.512 0 0l-1.024-1.024c-2.048-1.536-4.096-2.56-4.096-3.072v-1.024c-1.024 1.024-1.024 1.024 0 1.024-0.512 0.512-1.024 1.024-2.048 1.024 1.536 2.56 4.096 1.536 6.144 2.56v0.512c-3.584 0-0.512 5.12-4.096 4.096 0 1.024 0 2.048-1.024 2.048 1.536 0 3.584-0.512 4.608-2.048h4.608c2.56 0 5.12-1.536 6.144-4.096l-6.144 4.096-3.072-4.096z m13.312-1.024c-1.536-2.048-2.56-4.608-2.048-7.168-5.12 4.096 1.024 7.168-1.024 9.216 0.512-1.024 1.536-1.024 3.072-2.048zM399.36 358.912L134.656 466.944h-2.048c0-1.536-0.512-3.584-1.024-5.12l-10.24 4.096c0.512 2.048-0.512 4.096-2.048 5.12 1.024 1.024 2.048 1.024 3.072 1.024l-4.096 2.048 3.072 7.168c-2.56 1.536-5.12 2.56-8.192 3.072 1.024 22.016-4.096 47.616 4.096 75.776l6.144-2.048c3.072 4.096-1.024 9.216 2.048 14.336 0 1.536 0 3.584-1.024 5.12 1.024 0 2.048-1.024 3.072-3.072l1.024 1.024s2.048 3.072-5.12 4.096c4.096 5.12 2.048 8.192 6.144 13.312 4.096-4.096-3.072-7.168 5.12-9.216l4.096 5.12 5.12-4.096c1.024-5.12-5.12-1.024-12.288-4.096 5.12-4.096 1.024-10.24 2.048-15.36-1.024 0-2.048 0-2.048 1.024l-2.048-4.096h-1.024v-3.072c5.12 1.024 7.168 3.072 10.24 1.024-3.584-4.096-4.608-10.24-3.072-15.36-3.584-0.512-6.656-2.56-8.704-5.632 0-1.024 0-1.536-0.512-2.56 2.048 0 3.072 2.048 5.12 1.024 1.024-1.536 1.024-3.584 1.024-5.12 1.024 0 2.048 0 3.072-1.024-2.048-3.072 3.072-2.048 3.072-7.168-4.096-5.12-2.048-8.192-4.096-10.24-1.024-1.024-1.024-1.024-2.048-1.024v-1.024c0.512-0.512 1.024-1.024 1.024-2.048s0-2.048-1.024-3.072v-18.944l3.072-1.024 271.36-109.056-7.68-18.944zM120.32 537.6l3.072-1.024h1.024c0 2.048-2.048 2.048 0 4.096 0.512 0 1.024 0 1.536-0.512-0.512 3.584-1.024 3.072-4.608 2.56 1.024 1.024 2.048 2.56 2.048 4.096-2.048-3.072-4.096-6.144-3.072-9.216m11.264 33.28c0 2.048-1.024 4.096-3.072 4.096 0-1.024 0-1.024 1.024-2.048l2.048-2.048z m-1.024-22.016c1.024 8.192-4.096 6.144-7.168 7.168 0-1.536 0.512-3.072 2.048-4.096v-1.024c2.048 0 4.096 0 5.12-2.048z m767.488-377.856c-5.12-1.024 3.072-2.048-2.048-3.072-1.024 5.12-3.072 2.048-5.12 4.096l2.048 3.072 5.12-4.096z m16.896 43.52c1.024-3.584 1.024-7.68 0-11.264-1.024 5.12-1.024 5.12-5.12 4.096 2.56 2.048 4.096 4.608 5.12 7.168m-20.992-25.6c3.072-2.048 5.12-4.096 13.312-1.024 3.072-2.048 5.12-4.096 3.072-7.168-5.12 4.096-10.24-1.024-15.36-2.048 7.168 3.584-6.144 4.608-1.024 10.24z m-678.4 558.08c1.024-2.56 3.584-4.096 6.144-4.096l-9.216-11.264c-3.072 2.048 2.048 8.192-1.024 10.24-5.12-1.024-7.168-3.072-10.24-1.024l9.216 11.264c2.048-2.048 3.072-6.144 5.12-5.12M905.216 213.504c2.048-5.12 4.096 0 5.12-1.024l-3.072-4.096c-2.048 1.024-4.096 3.072-2.048 5.12m-53.76-81.92l-4.096-5.12c-2.56 2.56-6.656 4.096-10.24 4.096 1.024 2.048-4.096 1.024 1.024 7.168 3.072-7.168 8.192-2.048 13.312-6.144m-722.944 322.56s4.096-5.12 6.656-3.584c10.752-27.136 11.264-57.344 28.16-84.48-4.096 0-5.12-3.072-5.12-6.144 1.024-0.512 2.048-1.024 3.072-1.024 7.168-3.072 9.216-7.168 6.144-14.336 10.24-4.096 9.216-15.36 17.92-22.016-6.656-8.192-2.048-10.752-5.12-20.992 2.56-1.536 4.096-5.12 6.144-2.56-1.024 8.192-4.096 9.216-1.024 16.384 22.016-32.256 37.376-60.928 72.704-87.04 2.048-5.12 12.288-9.216 12.288-16.384 1.024 3.072 1.024 3.072 5.12 2.048 10.24-12.288 35.328-17.92 41.472-32.256 14.336-2.048 31.232-17.408 48.64-23.04-0.512-1.024-1.536-2.048-2.56-3.072l2.56-2.048c-1.024-1.024-1.536-1.536-3.072-1.024l-2.048-3.584c-3.072 1.024-10.24 4.096-9.216 7.168-6.144-5.12-20.48 8.192-26.112 11.264 1.024 3.072 3.072 7.168-1.024 8.192-7.168 3.072 1.024-8.192-6.144-5.12 1.024 3.072 3.072 7.168-4.096 9.216-9.216-4.096-24.064 6.144-33.28 13.312 3.072 7.168 5.12 2.048 6.144 5.12-7.168 3.072-2.048 5.12-5.12 6.144-4.096-10.24-3.072 1.024-9.216-4.096 0 0 6.144 5.12 3.072 7.168l-3.584-7.68c-21.504 5.12-22.016 20.48-39.424 27.136 1.024 3.072-2.048 5.12-1.024 8.192-20.48 19.456-37.888 41.472-51.712 66.048 0-1.024-0.512-1.536-1.024-2.56-3.072 1.024-1.024 8.192-4.096 9.216 3.072 7.168 5.12 2.048 6.144 5.12-7.168 3.072-5.12-2.048-8.192-1.024 1.024 3.072 6.144 5.12 3.072 7.168l-7.168 3.072c1.024 3.072-2.048 5.12-5.12 6.144 4.096 10.24 3.072 17.92-3.072 20.48 2.048 5.12-1.024 7.168-2.048 10.24 0-2.56 0-5.632-1.024-8.192l3.072-1.024c-1.024-3.072 1.024-8.192-4.096-10.24-7.168 3.072-3.072 12.288-9.216 15.36 1.024 3.072 7.168 9.216 4.096 10.24-7.168-9.216-3.072 12.288-10.24 12.288 4.096 10.24-9.216 15.36 1.024 22.016-7.168 3.072-5.12-2.048-8.192-1.024l3.072 7.168c-7.168 3.072-3.072 12.288-9.216 15.36 6.144 5.12-1.024 8.192 2.048 14.336 3.072-1.024 5.12-6.144 7.168-3.072l1.024 3.072c-5.12 2.048-7.168 5.12-7.168 8.192 0-3.072-1.024-7.168-2.048-4.096 4.096 6.656-3.072 8.704 0 14.848zM360.96 153.6l1.024 2.56-3.072-1.536c0.512-0.512 1.536-0.512 2.048-1.024m-23.552 9.216c1.024 3.072-1.024 8.192-7.168 11.264-2.56-7.168 5.12-7.168 7.168-11.264m663.552 348.672h-2.048c-4.096 4.096 0 4.096 2.048 0m-7.168 87.04c1.024 2.56 2.048 4.608 3.072 7.168l7.168-3.072c-1.536-4.096-6.144-5.632-10.24-4.096zM286.208 76.8c-1.024 1.024-1.024 2.048-1.024 3.072 2.048-1.024 3.072-2.048 4.096-4.096-1.024 0-2.56 1.024-3.072 1.024"
          fill="#FFAA33" p-id="6019"></path>
    <path d="M130.56 453.632l3.072 4.096c0 1.024 0 1.024 1.024 3.072v3.072c2.048-2.048 0-4.096 0-8.192l-1.024-1.024c0-0.512 0-0.512 0.512-1.024h0.512c1.024-1.024 1.024-1.024 1.024-2.048l-0.512-0.512c-0.512 1.024-0.512 1.536-1.024 2.56h-3.584z m878.592-62.464c0-1.024 1.024-2.048 1.024-3.072-0.512 1.024-0.512 2.048-1.024 3.072m-24.064 241.664c7.168-3.072 1.024-8.192 1.024-8.192 1.024 3.072-4.096 1.024-1.024 8.192z"
          fill="#FFAA33" p-id="6020"></path>
    <path d="M986.112 624.64c2.56 1.024 5.12 2.56 6.144 5.12 1.024 3.072-2.048 5.12-1.024 8.192 7.168-3.072-1.024-11.264 7.168-11.264-6.144-5.12 2.048-5.12 1.024-8.192-5.632-1.024-7.168 3.072-13.312 6.144M197.12 734.72c3.072-7.168 3.072-2.048 5.12-4.096-2.048-3.072-1.024-13.312-9.216-11.264 3.072-7.168-8.192-16.384-8.192-21.504-6.144-7.168-6.144-12.288-11.264-18.944l-7.168 7.168c8.192 16.384 13.312 21.504 18.944 35.328 5.12 1.024 8.192-2.048 12.288 4.096l-5.12 4.096 4.608 5.12z m-24.064-40.448l3.072-2.048c5.12 1.024 7.168 8.192 9.216 6.144-3.584 7.168-13.312 1.024-12.288-4.096z"
          fill="#FFAA33" p-id="6021"></path>
    <path d="M175.104 679.424c-1.024-1.024-1.024-2.048-2.048-2.048-3.072 1.024-5.12-1.024-8.192 1.024 4.096 5.12 7.168-1.024 10.24 1.024m-21.504-15.36c5.12 1.024-1.024 5.12 7.168 8.192l11.264-9.216c-7.168-8.192-3.072-15.36-13.312-16.384 6.144-9.216-3.072-20.48-7.168-31.232 0 0-3.072 7.168-5.12 4.096 1.024-5.12-2.048-8.192 1.024-10.24 4.096 5.12-1.024 5.12 2.048 8.192 5.12-4.096 4.096-12.288-3.072-20.48-2.56 1.536-5.12 2.048-8.192 2.048 2.048 3.072 2.048 3.072-1.024 5.12l-5.12 4.096c7.68 4.096 10.752 13.312 8.192 21.504 1.024 1.536 3.584 2.048 5.12 1.024-5.12 4.096 3.072 11.264 7.168 11.264-9.216 2.048 9.216 8.192 10.24 16.384-6.144 3.584-4.096 6.656-9.216 5.632zM141.312 609.28l-3.072-4.096c1.024-1.024 3.072-2.048 4.096-1.024 0 0.512 2.56 3.584-1.024 5.12M782.848 86.016l-4.096-6.144 2.048-2.048c-2.56-3.072-7.168-3.584-10.24-1.024 2.048 3.072 2.048 8.192 4.096 10.24 5.12 1.024 5.12 1.024 8.192-1.024m-118.784 890.368c-2.56-3.072-7.168-3.584-10.24-1.024 4.608 6.144 9.728 6.144 10.24 1.024m13.312 0c-2.56 1.024-5.632 2.048-8.192 3.072 3.072 3.072 7.168 4.608 11.264 4.096-5.12-2.048-5.12-2.048-3.072-7.168m-9.216 3.072h1.024c0-1.024-1.024-1.024-1.024 0M56.32 673.28c2.048-0.512 4.096-1.024 6.144-2.048-1.536-2.56-3.584 1.536-6.144 2.048z"
          fill="#FFAA33" p-id="6022"></path>
    <path d="M677.376 986.624c-2.048-1.024-5.12 2.048-6.144 6.144-1.024-4.608-2.048-8.704-3.072-13.312-4.096 1.024-8.192 2.048-11.264 3.072l1.024 1.024h-2.048c-2.048-2.048-4.096-1.024-8.192-3.072 0.512 2.56-1.024 4.096-1.024 6.144-1.024-0.512-2.048-0.512-3.072-1.024 0-1.536-0.512-3.072-2.048-4.096-5.12-1.024-11.264 9.216-15.36 3.072-1.024 1.536-2.048 3.072-2.048 5.12l-5.12 2.048c0-2.048-1.024-4.096 2.048-4.096 1.024-5.12-3.072 2.048-5.12-1.024l1.024-5.12c2.048 3.072 5.12-4.096 7.168 3.072 3.072-2.048 5.12 1.024 8.192-2.048-2.048-3.072 3.072-7.168-1.024-13.312-5.12 4.096-1.024 5.12-3.072 7.168-2.048-3.072-5.12 4.096-8.192 2.048 1.536-1.024 2.048-3.584 1.024-5.12-31.232 7.168-62.464 14.336-93.184 10.24l-8.192 7.168-4.096-5.12c-8.192 7.168-18.944-7.168-30.208 2.048l-4.096-5.12c-9.728 3.072-19.968 4.096-30.208 2.048-12.288-4.096-25.088-3.072-34.304-9.216-5.12-1.024-10.24-1.024-15.36-2.048-4.096-5.12-8.192 2.048-14.336-7.168-25.088 2.048-46.592-17.408-69.632-17.408-40.96-27.136-79.872-41.472-116.224-75.776-5.12-1.024-1.024 5.12-5.12 4.096-9.216-11.264-18.944-22.528-29.184-33.28-0.512 0-1.536 0.512-2.048 0.512-1.024-0.512-2.048-0.512-3.072-0.512l1.024 1.024c-2.048 0.512-3.584 0.512-3.072-2.048 1.536-1.536 3.584-2.048 5.12-1.024-18.944-18.944-36.352-39.424-51.712-61.44-1.536 1.024-4.096 0.512-5.12-1.024 5.12-4.096 1.024-5.12 3.072-7.168-12.288-9.216-13.312-21.504-20.48-25.088 1.024-5.12-7.168-26.112-16.384-18.944l5.12-4.096c-4.096-5.12-7.168-8.192-6.144-13.312-3.072 2.048-1.024 4.608-2.56 6.656 1.536 3.072 1.536 7.168-1.024 9.728l-4.096-5.12 3.072-2.048c-4.096-5.12-5.12-1.024-7.168-3.072 5.12-4.096 5.12 1.024 8.192-2.048-2.048-3.072 1.024-5.12 3.072-7.168-6.144-13.312-8.192-21.504-12.288-31.232-1.536 1.024-4.096 0.512-5.12-1.024 2.048 8.192-5.12-1.024-6.144 9.216l-4.096-5.12c2.048-2.048 3.072-4.608 3.072-7.168 1.024 1.536 3.584 1.536 6.144 1.536-0.512 0-1.024 0-1.024-0.512l-2.048-3.072c1.024 1.536 3.584 2.048 5.12 1.024-3.072-5.12-3.072-5.12 0-7.168-4.096-5.12-5.12-1.024-7.168-3.072l5.12-5.12c-20.48-47.616-23.04-91.136-26.112-134.144 2.048-1.024 1.024-3.072 0-5.12 0 1.024-2.048 3.072 0 5.12-3.072 2.048-8.192 2.048-7.168-3.072 2.048 3.072 5.12-4.096 7.168-2.048-1.024-1.024-1.024-2.048-2.048-2.048-9.216 3.072-17.408 8.192-24.064 15.36 4.096 5.12-1.024 10.24 8.192 16.384l-1.024 1.024h-1.536c0 0.512 0.512 1.024 1.024 1.024l-2.048 2.048c6.144 36.352 10.24 69.632 18.944 103.936 2.048 2.048 8.192-2.048 7.168 3.072l-5.12 4.096c9.216 11.264 7.168 26.112 18.944 35.328-2.048-3.072-2.048-3.072 1.024-5.12 0.512 0 1.024 0.512 1.536 1.024 0.512 0.512 0 1.024 0.512 1.024s1.024-0.512 1.024-1.024-0.512-1.024-1.024-1.024c-1.024-5.12-0.512-5.632 4.096-9.216 2.048 3.072 0 5.12-3.072 11.264 4.608 3.072 9.216 5.632 14.336 8.192-5.12 4.096-10.24-1.024-13.312 1.024-6.144-1.024 2.048-3.072 0-6.144-3.072 2.048-5.12-1.024-10.24 4.096 11.264 18.944 16.384 37.376 29.184 58.368 3.072-2.048 5.12-4.096 8.192-2.048-8.192 2.048-3.072 7.168 1.024 13.312 3.072-2.048 5.12-4.096 10.24 1.024l-8.192 7.168c6.144 13.312 21.504 15.36 15.36 24.064 9.216 6.144 7.168 8.192 14.336 12.288-1.024 10.24 15.36 24.064 24.064 35.328 8.192-2.048 10.24 1.024 10.24-4.096 0 0 7.168 3.072 4.096 5.12s-5.12-1.024-8.192 2.048c11.264 18.944 23.04 22.016 36.352 39.424 3.072-2.048 5.12 1.024 8.192-2.048 4.096 10.24 23.04 22.016 35.328 26.112 4.096 5.12-1.024 5.12 2.048 8.192 9.216 6.144 21.504 15.36 30.208 21.504 3.072-2.048 3.072-7.168 5.12-4.096-6.144 9.216 7.168 8.192 9.216 11.264 0 0 3.072-7.168 5.12-4.096 2.048 3.072-10.24 4.096-3.072 7.168 5.12 1.024 8.192-2.048 10.24 1.024 25.6 13.824 52.224 25.088 79.872 33.28 4.096 1.024 8.192 2.048 12.288 4.096 0 1.024-1.024 1.024-2.048 2.048 3.072 1.024 6.144 3.072 9.216 4.096-1.024-1.536-1.024-3.584-1.024-5.12 1.024 0 2.048 1.024 4.096 1.024l1.024 2.048c17.408 5.12 35.328 12.288 54.784 12.288 0-2.048 0-3.072 1.024-4.096 5.12 1.024 10.24 1.024 14.336 2.048 0.512 2.56 1.024 5.12 2.048 7.168 9.216-3.072 13.312-2.048 17.92 2.048-1.536-1.536-2.048-3.584-1.024-5.12 3.072-1.024 5.12 2.048 7.168 9.216 10.24-4.096 22.016-1.024 33.28-2.048-2.048-5.12-7.168-5.12-9.216-6.144h1.024c1.024-1.024 1.024-1.024 1.024-2.048 2.048 0 2.048 1.024 4.096 2.048h1.024v-2.048c1.024-2.048 3.072-3.072 4.096-2.048 0.512 0.512 1.024 1.024 1.024 2.048 0-1.024 1.024-1.024 4.096-2.048h1.024c1.536 2.048 2.048 4.096 2.048 6.144 0 0-1.024-3.072-5.12-2.048 3.072 7.168 6.144 5.12 7.168 9.216 5.12-6.144 11.264-1.024 17.92-3.072-1.536-3.072-1.536-6.144 0-9.216 0.512-0.512 1.024-1.024 2.048-1.024 2.048 1.024 3.072 2.048 5.12 7.168l7.168-3.072c-2.048 5.12 1.024 3.072 3.072 7.168 10.24-3.584 21.504-5.632 32.256-5.12-1.024-3.072 1.024-8.192-1.024-11.264l1.536-0.512c0.512 0.512 1.024 0.512 1.536 0.512 0-0.512 0-1.024-0.512-1.024l1.536-0.512 1.024 2.048c2.048-1.024 4.096-1.024 5.12-2.048 0.512 1.536 1.024 3.584 1.024 5.12 0 0-9.216 7.168-5.12 6.144 10.24-4.096 12.288 3.072 17.92-3.072-2.048-3.584-2.048-7.68-1.024-11.264h-3.072c2.048-1.024 4.096-1.024 6.144-1.024 2.048 4.096 7.168 10.24 3.072 14.336 5.12 3.072 11.264 3.584 16.384 1.024-3.072-7.168-5.12-2.048-6.144-5.12 5.12-0.512 9.728-2.048 14.336-4.096-2.048 2.048-2.048 4.608-1.024 7.168 2.048-1.536 4.096-3.072 6.144-4.096l-1.024-3.072c1.024 0 1.024 1.024 1.024 3.072 8.192-4.096 17.408-7.168 17.408-13.312l3.072 7.168c1.024-1.024 1.024-2.048 1.024-5.12l3.072-1.024c-3.584-5.12 2.56-7.68 1.536-10.24zM31.232 612.352c-1.024 2.56-3.072 5.12-5.12 7.168-5.632-2.048 2.048-3.072 5.12-7.168zM21.504 624.64c3.072-2.048 5.12-4.096 8.192-2.048-2.56 1.024-7.168 4.096-8.192 2.048z m8.192 16.384c-2.048-3.072 1.024-5.12 3.072-7.168l4.096 5.12c-2.56 3.072-2.56-2.048-7.168 2.048z m17.92 22.016l2.048 3.072c-5.12-1.024-1.024 5.12-3.072 7.168 0-5.12-2.048-8.192 1.024-10.24m91.136 164.864c-2.56 0-4.608 1.536-5.12 4.096-4.096-5.12 5.632-9.216 5.12-4.096z m224.256 145.408c5.12-5.12 8.192-7.168 10.24-4.096-3.072 7.168-8.192 7.168-10.24 4.096z m139.264 24.064l-4.096-5.12c2.048-1.536 9.216 0.512 4.096 5.12m10.24 10.24v-2.048c1.024 0 1.536 0.512 2.048 1.024-1.024 0-1.536 0-2.048 1.024m52.736-1.024c2.56 0.512 5.12 1.536 7.168 3.072 0 1.024 1.024 3.072 1.024 4.096-6.144 3.072-7.68-1.024-8.192-7.168m29.184-15.872c-1.024 0-1.024 1.024-2.048 1.024 1.024-3.072 4.096-7.168 7.168-4.096-2.56-0.512-4.608 0.512-5.12 3.072m8.192 7.68l-2.048 2.048c-2.048-2.048 0-4.096 2.048-4.096v2.048z m0-5.12c-3.072 0-5.12 2.048-6.144 1.024v-1.024l5.12-4.096 1.024 2.048v2.048z m34.816-0.512c-2.048 1.024-4.096-1.024-5.12-3.072 1.024-1.024 2.048-2.048 3.072-2.048 2.56 2.048 5.12 4.096 2.048 5.12z m10.752-5.12c-0.512 0-0.512 0-1.024-0.512 2.048-2.56 2.56-3.584 5.12-2.56-1.024 0.512-2.56 1.536-4.096 3.072m25.088-12.288l5.12-2.048c-1.024-2.048-2.048-5.12-4.096-4.096 4.096 4.096-2.048 4.096-1.024 6.144"
          fill="#FFAA33" p-id="6023"></path>
    <path d="M888.832 586.24c8.192 1.024 10.24-4.096 5.12-25.088 0-4.096 1.024-8.192 1.024-12.288 2.048 2.048 4.096 3.072 7.168 6.144 9.216-12.288 5.12-22.016 8.192-29.184l-0.512 0.512c0-0.512 0-0.512-0.512-0.512-3.072 2.048-7.168-3.072-4.096-5.12 1.024 1.536 3.072 2.048 5.12 1.024l-5.12-7.168c-2.048 2.56-5.632 3.072-8.192 1.536l-1.536-1.536c1.536-28.16-0.512-56.32-5.12-83.968-7.168 3.072-4.096 9.216-12.288 9.216 2.56 16.896 4.608 33.792 5.12 50.688L231.424 755.2l2.048 6.144c-4.608-4.096-8.704-8.192-12.288-13.312-2.048 2.048-3.072 4.608-3.072 7.168-1.024-1.024-1.024-2.048-2.048-3.072l2.048-2.048-2.048-3.072c-1.024 1.536-1.024 3.584 0 5.12l-3.072 2.048c2.048 3.072 7.168 8.192 9.216 6.144-3.072 7.168 13.312 17.408 17.92 22.016 3.072-2.048 5.12-4.096 8.192-2.048 4.096 5.12-8.192 2.048-3.072 7.168 3.072-2.048 5.12-4.096 10.24 1.024-1.024 10.24 13.312 21.504 22.016 27.136 5.12-4.096 1.024-5.12 3.072-7.168 4.096 5.12 5.12 1.024 7.168 3.072-8.192 7.168 2.048 3.072-1.024 10.24 0 0 3.072-7.168 5.12-4.096l-5.12 4.096c11.264 18.944 26.112 15.36 37.376 29.184 3.072-2.048 5.12 1.024 8.192-2.048 6.144 4.096 12.288 7.168 17.92 10.24-2.048 1.536-4.608 3.072-7.168 4.096 9.216 12.288 20.48 11.264 26.112 16.384 1.536-1.024 2.048-2.56 2.048-4.096 1.024 3.072-1.024 7.168 2.048 6.144-1.024-3.072 5.12-6.144 7.168-3.072 0 0-3.072 1.024-2.048 5.12l6.144-2.56v1.536c1.536-0.512 2.56-2.048 2.048-3.584v-0.512c-0.512 0.512-1.024 0.512-1.536 1.024-0.512-1.536-1.024-2.56-0.512-3.584-0.512 0.512-1.024 0.512-2.048 0.512l-1.024-3.072c1.024 0 2.56 0.512 3.584 1.024 0.512-0.512 0.512-1.024 1.536-2.048 3.072 1.024 7.168 2.048 10.24 3.072-0.512 0-1.024 0.512-1.024 1.024 3.072 7.168 5.12 2.048 6.144 5.12 1.024-1.024 2.048-1.024 2.048-2.048 0 1.024 0 2.048 2.048 4.096 3.072-1.024 4.608 1.536 7.168 1.024 5.12 2.048 11.776 3.072 16.896 5.12-3.072-7.168-5.12-2.048-6.144-5.12l7.168-3.072c3.072 7.168 6.144 5.12 7.168 9.216 2.048-1.024 2.048-2.048 2.048-3.072l1.024 1.024c1.024 0 1.024-1.024 2.048-1.024 3.072 2.048 6.656 3.584 10.24 5.12 4.096 5.12 13.312-1.024 17.408 4.096 2.048-1.024 4.096-5.12 6.144-7.168-2.048 4.096 1.024 3.072 3.072 6.144 7.168-3.072 8.192 1.024 11.264-1.024v-2.048c1.536 0 3.072 1.024 3.072 2.048v1.024c2.048-1.024 3.072-2.048 5.12-2.048 0 2.048 1.024 3.584 2.048 5.12 5.632-1.024 11.264-1.024 16.384 1.024 7.168-3.072 2.048-5.12 5.12-6.144 3.072 7.168 5.12 2.048 6.144 5.12 23.04-6.144 51.712-4.096 75.776-11.264l1.024 1.024c5.12-2.048 10.24-3.072 16.384-5.12 2.048 2.048 4.096 3.072 6.144 2.048 2.048-1.024 2.048-2.048 2.048-4.096 1.024 0 2.048-1.024 4.096-1.024l1.024 3.072c7.168-3.072 16.384-7.168 24.064-6.144 13.312-5.12 28.16-15.36 48.64-23.04 5.12-6.144 20.48-8.192 20.48-16.384 0 0 1.024 3.072 5.12 2.048 20.48-16.384 45.568-30.208 56.832-49.664 7.168-3.072 17.92-11.264 18.944-18.944 0 0 1.024 3.072 5.12 2.048 9.216-15.36 26.112-30.208 31.232-47.616-1.024-3.072-7.168 3.072-5.12-2.048 8.192 1.024 9.216-7.168 7.168-11.264l3.072 7.168c3.072-1.024-1.024-11.264 10.24-12.288-2.56-1.024-4.096-4.096-3.072-6.656v-0.512c9.216 4.096 3.072-12.288 14.336-13.312l-3.072-7.168c10.24-12.288 10.24-31.232 21.504-43.52-5.12-13.312 5.12-17.408 1.024-27.136l7.168-3.072c-5.12-6.656-1.024-15.872-10.752-19.968z m7.168-69.632c1.024-1.024 2.048-1.024 3.072 2.048l-3.072 3.072v-5.12z m-1.024 19.968c1.024 0 3.072 0 2.048 2.048l-2.048 3.072v-5.12zM231.424 771.072c2.048-1.024 4.096-1.024 6.144-1.024l1.024 2.048 2.048-1.024 3.072 3.072c-5.12 5.12-7.168-2.048-12.288-3.072m132.608 97.28l-1.024-2.048c1.024 0 2.048 1.024 3.072 1.024 0 1.024 0 1.024-2.048 1.024m50.176 15.872v-1.536c2.048 0 3.072-1.024 4.096 0l-4.096 1.536z m1.024-3.584c0-1.536 0.512-3.584 1.024-5.12 0 1.024 1.024 3.072 1.024 4.096-1.024-0.512-1.024 0.512-2.048 1.024z m48.64 8.704l-1.024-2.048c-0.512 0-1.024 0.512-1.024 1.024 0-1.024 0-2.048 1.024-1.024-1.024-1.024 0-1.024 0 0 1.024-1.024 2.048-1.024 3.072-1.024 0 1.024-1.024 2.048-2.048 3.072z m190.464-19.968c0-0.512-0.512-1.024-1.024-1.024 2.048 0 5.12-2.048 6.144-1.024-1.024 1.024-3.072 2.048-5.12 2.048m49.664-22.528l2.56 6.656c-1.024-2.56-5.632-4.608-2.56-6.656z m122.368-119.808c5.12-6.144 5.12 2.048 6.144 5.12-2.048 4.608-4.096-1.536-6.144-5.12z m22.016-31.744c5.12 2.048 3.072-1.024 7.168-3.072l3.072 7.168c-2.048-4.096-9.216-1.024-10.24-4.096m10.24-4.096c3.072-1.024 1.024-8.192 4.096-9.216l3.072 7.168-7.168 2.048z m24.064-90.624c-1.024-3.072-8.192-1.024-11.264 1.024-9.728 36.864-25.6 72.192-46.592 103.936l1.024 3.072c-11.264 1.024-14.336 13.312-17.92 22.016-15.36 10.24-25.088 33.28-43.52 44.544 1.024 3.072 6.144 5.12 3.072 7.168-5.12-2.048-17.92 11.264-16.384 17.92-3.072 1.024-1.024-11.264-6.144-5.12s-17.92 11.264-22.016 20.48c-3.072-7.168-7.168 3.072-9.216 7.168-17.92 3.072-33.28 21.504-58.368 27.136 0.512 2.048-0.512 4.096-2.048 5.12-0.512-2.048 0.512-4.096 2.048-5.12-15.36 6.144-28.16 8.192-36.352 16.384-1.024 0-2.048 1.024-3.072 1.024l-2.048-5.12c-7.168 3.072-13.312 5.12-17.92 3.072-2.56 2.048-4.096 5.12-4.096 8.192h-2.048c0-2.048 0-4.096-1.024-6.144-7.168 1.536-14.848 1.536-22.016 1.024 1.024 3.072 6.144 5.12 3.072 7.168-6.144-5.12-12.288-3.072-20.48-3.072 1.024 3.072 5.12 5.12 3.072 6.144h-2.048c1.024-0.512 1.024-2.048 0.512-2.56l-0.512-0.512c-11.264 1.024-17.92 3.072-26.112 3.072-1.024 0-1.024 1.024-1.024 2.048h-2.048v-1.024c-1.536-0.512-3.584 0-5.12 1.024h-7.68c-10.24 0.512-20.992-0.512-31.232-3.072v2.048c-3.072 0-5.12-1.024-9.216-1.024-3.584-2.56-9.216-2.56-12.288 1.024-7.168-8.192-17.408-4.096-27.136-10.24-2.048 2.048-3.072 4.096-4.096 5.12-2.048 0-4.096-1.024-6.144-1.024 1.024 0 2.048-1.024 3.072-2.048-36.352-11.264-69.632-17.408-103.936-44.544-5.12-1.024-12.288-9.216-18.944-7.168 3.072-2.048 3.072-2.048 1.024-5.12-14.336-7.168-27.136-28.16-42.496-30.208-3.584-6.144-8.192-11.776-13.312-16.384l639.488-258.56c-1.024 22.528-4.096 45.568-9.216 67.584 3.584 10.24 10.752 18.432 8.704 23.552z m-188.416 374.784c3.072-2.048 1.024-5.12 1.024-10.24-2.56 2.56-3.072 6.656-1.024 10.24z m-333.312 17.408c0 1.024 1.024 2.048 1.024 3.072 2.048-1.024 5.12-1.024 7.168 0-2.048-5.12-7.168 0-8.192-3.072z m546.816-171.008l-7.168 3.072 3.072 7.168 7.168-3.072c-1.536-4.096-1.536-12.288-3.072-7.168z m-208.384 131.584l-5.12 4.096 4.096 5.12c2.56-2.56 5.632-4.608 1.024-9.216z m208.384-151.04l5.12 13.312c3.072-1.024 2.048-5.12 4.096-9.216-4.608-2.048-3.072-7.168-9.216-4.096zM849.92 876.544c2.048 2.048 0 10.24 5.12 5.12 0-2.56-1.536-5.12-4.608-5.12h-0.512z"
          fill="#FFAA33" p-id="6024"></path>
    <path d="M386.048 873.984c-0.512 0.512-1.024 1.024-1.024 1.536s1.024-0.512 1.024-1.536m487.424-19.968c1.536 3.072 5.632 5.12 9.216 4.096l-3.072-7.168-6.144 3.072zM360.96 992.768c0-1.024-0.512-1.536-1.024-2.048l1.024 2.048z m539.136-478.208c1.024 2.048 3.072 1.024 5.12 0-1.024-1.024-2.048-2.048-5.12 0m5.12 0c1.024 0 1.024-1.024 0 0m-72.704 368.64c-2.048 5.12-2.048 5.12-1.024 8.192l7.168-3.072 1.024 3.072c3.072-1.536 5.12-5.632 4.096-9.216-4.608 1.024-8.704-1.024-11.264 1.024z m-127.488 82.944c8.192-2.048 1.024-10.24-2.048-8.192 3.072 3.072 0 5.12 2.048 8.192z m11.264 2.048l-3.072 1.024 3.072 7.168c2.048-5.12 1.024 3.072 3.072-1.024-5.12-2.048-2.048-4.096-3.072-7.168z m133.632-91.648h-1.024c-1.536 1.024-0.512 0 1.024 0z m-149.504 90.624c2.56 4.096 1.024 9.728-3.072 12.288 1.024 3.072 3.072 7.168 6.144 5.12-3.072-7.168 4.096-9.216 6.144-14.336-5.12 7.168-2.048-6.144-9.216-3.072m73.216-37.376c-3.072 1.024-1.024-3.072-8.192-1.024 6.144 5.12-1.024 8.192 2.048 14.336l7.168-3.072c-2.56-3.072-3.072-7.168-1.024-10.24m-263.168 83.456c-1.024 0-1.024 1.024 0 0M482.304 27.648c2.048-0.512 0.512-3.072 0-5.12-0.512 1.536-0.512 3.584 0 5.12m-0.512-5.12c0-1.024 0-1.536 0.512-2.56-0.512 0.512-0.512 1.024-0.512 2.56z m479.744 257.536c2.048-2.048 7.168-3.072 2.048-5.12-2.048 2.048-1.024 3.072-2.048 5.12z m21.504 93.184h1.024c0-0.512 0-0.512-0.512-1.024-0.512 0.512-0.512 0.512-0.512 1.024M634.88 42.496c1.024 1.536 2.56 2.048 4.096 2.048 1.024-1.024-1.024-4.096-4.096-2.048z m12.8-22.016l-5.12 4.096 2.048 3.072c7.68-1.536 9.728-3.072 3.072-7.168zM23.552 366.08c0-1.024-1.024 0 0 0M10.24 449.024z m950.272-166.912c1.024-1.024 1.024-1.024 1.024-2.048-1.024 0-2.048 0.512-1.024 2.048M16.384 492.544c2.048-5.12-5.12-13.312 1.024-16.384-0.512-2.048-5.632-3.584-7.168-6.144 0 3.072-0.512 6.656-1.024 9.728 3.072-1.024 6.144 5.12 4.096 10.24-2.048 0-3.072-3.072-6.144-2.048 1.024 3.584 5.12 5.632 9.216 4.608-0.512 0-0.512 0 0 0-0.512 0 0 0 0 0m910.848 282.624c-1.024 8.192 1.024 11.264 6.144 5.12l-3.072-7.168-3.072 2.048zM14.336 516.608c3.072-1.536 5.12-5.632 4.096-9.216-7.168 2.048-9.216 7.168-4.096 9.216"
          fill="#FFAA33" p-id="6025"></path>
    <path d="M11.264 429.568c8.192 1.024-3.072-7.168 7.168-3.072 1.024 3.072-1.024 8.192 2.048 14.336 0 0 11.264 7.168 4.096 10.24 2.048-5.12-3.072-7.168-4.096-10.24l-10.24 4.096v4.096c3.072-0.512 3.584 2.048 2.56 7.168 7.168-3.072 1.024-8.192 4.096-9.216l3.072 7.168-7.168 2.048-2.56-6.656c0.512 6.144 0.512 11.776 0 17.92l-0.512-0.512c-0.512 1.536-0.512 2.56 0 3.072v-2.56c1.536 2.048 7.68 0.512 5.632 4.608 5.12 2.048-1.024-3.072 2.048-5.12l5.12 2.048c-3.072 1.024 3.072 7.168-5.12 6.144 1.024 3.072-2.048 5.12-1.024 8.192 3.072-1.024 6.144 5.12 12.288 3.072-3.072-7.168-5.12-2.048-6.144-5.12 3.072-1.024-3.072-7.168 1.024-8.192 0 0 1.024 3.072 5.12 2.048 2.048-31.232 4.096-62.464 16.384-91.136L40.96 373.76l7.168-3.072c-4.096-10.24 12.288-16.384 7.168-30.208l7.168-3.072c-1.024-11.264 3.072-20.48 7.168-30.208 7.168-11.264 10.24-23.04 17.92-30.208 2.048-5.12 4.096-9.216 6.144-14.336 7.168-3.072 1.024-8.192 10.24-12.288 1.024-4.096 2.048-8.192 4.096-11.776-0.512 0.512-0.512 0.512-1.024 0.512-6.144-5.12-4.096-9.216-1.024-11.264 1.536 2.56 2.56 5.632 3.072 8.704 0 0.512-0.512 1.024-1.024 1.536 0.512-0.512 0.512-1.024 1.024-1.536 9.216-17.408 26.624-30.208 32.256-47.104 37.376-30.208 62.464-63.488 105.984-89.088 2.048-5.12-5.12-2.048-3.072-7.168 13.824-5.632 27.136-11.776 40.448-17.92 1.024-4.096-1.024-8.192 3.072-7.168 1.024 2.048 0 4.096 0 5.12 24.064-12.288 49.152-23.04 74.752-31.232-0.512-2.048 0.512-4.096 2.048-5.12 3.072 7.168 5.12 2.048 6.144 5.12C382.976 32.768 394.24 35.84 399.36 29.696c5.12 2.048 27.136 1.024 23.04-9.216l3.072 7.168c2.048-1.024 3.584-1.536 5.632-2.048 1.536 0.512 3.072 0.512 4.608 0H435.2c-1.536 0-2.56 0.512-4.096 1.024-2.048-0.512-3.584-1.536-4.608-3.584l6.144-3.072 2.56 6.144c1.536 0 3.072 0 4.608 1.024-1.024-3.072-5.12-2.048-6.144-5.12 7.168-3.072 2.048-5.12 5.12-6.144 3.072 7.168-2.048 5.12-1.024 8.192 3.072-1.024 5.12 2.048 6.144 5.12 14.336-2.048 22.016-1.024 33.28-2.048-0.512-2.048 0.512-4.096 2.048-5.12-8.192-1.024 2.048-5.12-7.168-9.216l6.144-2.048 3.072 3.072c1.024 1.024 2.048 1.536 3.072 2.048-1.536 0.512-2.048 2.56-3.072 4.608l0.512-0.512 5.12 1.024s-3.072 1.024-2.048 5.12c3.072-1.024 3.072-1.024 5.12 2.048 7.168-3.072 2.048-5.12 5.12-6.144l2.048 7.168c51.712-5.12 93.696 4.096 136.704 14.336-1.024-3.072 1.024-8.192 5.12-6.144-3.072 1.024 2.048 6.144 0 8.192 1.024 0 2.048-1.024 3.072-1.024 1.024-8.192-3.072-17.92-7.168-28.16-7.168 3.072-9.216-4.096-17.92 3.072l-3.072-7.168c-36.352-4.096-69.632-10.24-104.96-11.264-3.072 1.024-1.024 8.192-5.12 6.144L502.272 0c-13.312 5.12-27.136-1.024-39.424 8.192 4.096-1.024 4.096-1.024 5.12 2.048 0 1.024-1.024 1.024-2.048 1.024 6.144 1.024 6.144 1.024 9.216 7.168-3.072 1.024-5.12-2.048-9.728-5.632 0.512 0.512 0.512-0.512 1.536-0.512h-2.048c-5.12 4.096-10.24 7.168-11.264 11.264-1.024-2.56-0.512-5.632 1.024-8.192v1.024c1.024-1.024 2.56-2.048 4.096-3.072h2.048c-1.024-3.072 2.048-5.12-1.024-11.264-21.504 5.12-40.448 5.12-64.512 11.264 2.048 3.072 3.072 6.144 0 7.168 1.024-8.192-6.144-5.12-12.288-3.072 1.024 3.072 3.072 7.168-4.096 9.216l-4.096-10.24c-14.336 2.048-20.48 16.384-28.16 7.168-9.216 7.168-10.24 4.096-15.36 10.24-9.216-4.096-28.16 7.168-41.472 13.312-1.024 8.192-4.096 9.216 1.024 11.264 0 0-5.12 6.144-7.168 3.072-1.024-3.072 2.048-5.12 1.024-8.192-21.504 5.12-28.16 15.36-48.64 23.04 1.024 3.072-2.048 5.12-1.024 8.192-11.264 1.024-28.16 15.36-35.328 26.112-7.168 3.072-5.12-2.048-8.192-1.024-9.216 7.168-20.48 16.384-29.184 23.04 1.024 3.072 6.144 5.12 3.072 7.168-7.168-9.216-10.24 4.096-13.312 5.12 0 0 6.144 5.12 3.072 7.168s-1.024-11.264-6.144-5.12c-2.048 5.12-1.024 8.192-4.096 9.216C84.992 214.016 50.688 281.6 25.088 353.28c1.024 3.072 8.192 1.024 9.216 4.096-6.144 3.072-1.024 5.12-5.12 6.144-1.024-3.072-2.048-6.144-5.12-5.12 2.048 2.048 4.096 6.144 2.048 7.168-1.024 1.024-2.048 1.024-3.072 1.024 0.512 1.536 1.024 2.56 1.024 4.096 1.024 3.072-5.12 6.144-4.096 9.216l3.072 6.144s-7.168 3.072-5.12 6.144c1.536 3.584 2.048 7.68 1.024 11.264-5.12 6.144-2.048 5.12-4.096 9.216-1.024 2.56-3.072 4.608-5.12 6.144-1.536 4.608 3.584 6.656 1.536 10.752z"
          fill="#FFAA33" p-id="6026"></path>
    <path d="M547.84 17.408c-2.56-2.048-4.608-4.608-6.144-7.168 4.096-5.12 3.072 4.096 6.144 7.168M538.624 4.096c1.024 3.072 3.072 6.144-1.024 8.192 0-2.048-1.024-7.168 1.024-8.192m-17.408 3.072c3.072-1.024 5.12 2.048 6.144 5.12l-6.656 3.072c-1.024-3.072 3.072-1.024 0.512-8.192zM489.472 15.36c2.048 0 4.096 1.024 5.12 3.072l-3.072 1.024c1.024-3.072-1.024-3.072-3.072-3.072 0.512 0 1.024-0.512 1.024-1.024m-179.712 42.496c1.024-2.56 0-6.144-2.56-7.168 7.168-2.048 8.192 9.216 2.56 7.168z m-261.12 294.912c1.024 3.072-4.096 9.216-7.168 3.072l7.168-3.072z m545.792 652.288c0 2.048 0 7.168 4.096 3.072-1.024-2.048-3.072-2.048-4.096-3.072m364.032-753.152c1.536-5.12 0.512-11.264-3.072-15.36-5.12 4.096-1.024 5.12-3.072 7.168-2.048-4.608-5.12-8.704-8.192-12.288 2.56 1.024 5.12 1.024 7.168-1.024-2.048-1.536-4.608-3.072-6.144-5.12l-3.072 2.048c0-1.024 1.024-2.048 2.048-2.048-6.144-6.144-11.264-14.336-17.408-13.312l5.12-4.096c-1.536-1.024-3.584-1.024-5.12 0l-2.048-2.048c-4.096 3.072-7.168-1.024-9.216 0 0 3.072 3.072 4.096 7.168 4.096-3.072 2.048-5.12 4.096-8.192 6.144 0-0.512-0.512-1.024-1.024-1.024 0 0.512 0.512 1.024 1.024 1.024h-1.024c1.536 3.584 4.096 7.168 7.168 10.24 0-0.512 0.512-1.024 1.024-1.024 0 0.512 0 1.024 0.512 1.536l-0.512-0.512c-1.024 2.048 0 5.12 0 9.216 2.56-1.536 4.608 0 7.168-1.024-1.024 4.096-0.512 8.192 1.024 12.288 3.072-2.048 3.072-7.168 5.12-4.096 3.072 1.024 1.024 4.096-2.048 6.144l9.216 11.264c5.632 0 9.728-12.288 16.384-8.192"
          fill="#FFAA33" p-id="6027"></path>
    <path d="M924.672 229.888c1.536 1.024 3.072 2.048 4.608 3.584-3.584-1.024-4.096-1.024-4.608-3.584m41.984 41.984c-7.168-8.192-1.024-13.312-8.192-16.384-2.56 2.56-6.656 4.096-10.24 4.096 2.048 3.072 2.048 8.192 4.096 10.24-8.192 2.048-14.336-12.288-5.12 4.096 3.072-2.048 8.192-2.048 12.8-6.144-0.512 1.536 8.704 7.168 6.656 4.096z"
          fill="#FFAA33" p-id="6028"></path>
    <path d="M336.384 460.8c0.512 10.752 0.512 21.504 0 32.256l43.52-17.408-15.36-37.376 15.872-6.656 15.36 37.376 72.192-29.184 6.144 14.848-72.192 29.184 5.632 13.824c4.096 11.264 7.168 20.992 8.704 30.208l89.088-35.84 6.144 14.848-80.384 32.256c23.04 26.624 60.416 39.424 112.64 38.4l-3.072 16.896c-55.296-1.024-95.744-16.384-121.344-46.592 1.536 15.872 1.024 30.208-2.56 43.52-7.168 25.6-25.088 50.688-54.784 75.264l-13.824-9.728c29.184-25.088 47.104-49.152 53.248-71.68 2.048-11.264 2.56-22.528 1.536-34.816L322.56 583.168l-6.144-14.848 83.456-33.792c-1.536-8.704-4.608-18.432-8.704-30.208l-5.632-13.824-51.712 20.992c-2.56 16.384-6.656 30.208-12.288 41.984l-17.92-6.144c12.288-24.576 17.408-53.76 15.872-86.528h16.896zM540.672 364.544c6.656 6.656 13.312 13.312 19.456 20.48l40.448-16.384 6.144 14.848L506.88 423.424l-6.144-14.848 44.032-17.92c-6.144-6.144-12.8-12.288-19.456-17.408l15.36-8.704z m14.336 58.88c-1.024 23.04-5.12 44.544-11.776 64.512l-16.384-4.096c6.656-18.432 10.752-39.424 11.776-61.44l16.384 1.024z m4.608 51.712c10.24 3.072 22.016 6.656 34.304 11.264 1.024-12.288 1.024-24.576 0-36.864h15.872c1.536 14.848 1.536 29.184 0 43.008 13.312 5.12 25.6 10.752 36.864 16.896l-6.144 16.896c-9.216-4.608-19.968-10.24-33.28-15.872-5.12 26.112-15.872 48.64-31.232 68.608l-14.848-9.728c15.872-18.944 26.112-40.96 30.72-65.536-11.776-5.12-24.576-9.216-37.376-13.312l5.12-15.36z m52.224-36.352c-14.336-8.192-28.672-14.848-42.496-19.968l5.632-12.8c11.264 3.072 25.6 9.728 42.496 18.944l-5.632 13.824z m29.184-14.336c-0.512 7.68-2.048 16.384-4.096 26.112l-14.848-7.68c5.632-30.208 3.072-66.048-8.192-107.52l16.384-3.584c2.56 11.264 5.12 23.552 7.168 35.84l60.416-24.576 6.144 14.848-18.432 7.168c12.288 34.816 16.896 67.072 12.8 96.768 20.48 14.848 41.472 24.064 62.976 27.648L757.76 506.88c-21.504-4.096-42.496-13.312-62.464-27.648-6.144 24.064-17.408 46.592-34.304 67.584l-14.336-10.24c17.92-21.504 29.696-44.032 34.816-68.096-13.824-12.8-27.648-27.136-40.448-44.032zM640 384l1.024 16.896c13.824 19.968 28.672 36.352 43.008 49.152 2.048-25.6-2.048-51.712-12.288-79.36L640 384z"
          fill="#FF0000" p-id="6029"></path>
</svg>