<svg t="1713452433606" class="icon" viewBox="0 0 1024 1024" version="1.1" xmlns="http://www.w3.org/2000/svg" p-id="2647"
     width="16" height="16">
    <path d="M510.816 971.85066667c-26.48533333 0-50.93333333-9.568-68.50133333-27.12533334L166.752 669.16266667c-20.43733333-20.43733333-30.03733333-50.18666667-26.35733333-81.632 3.392-28.96 17.48266667-57.12 39.65866666-79.296l388.85333334-388.85333334c6.4-6.4 15.09333333-9.952 24.13866666-9.83466666l372.26666667 4.224c18.28266667 0.20266667 33.04533333 14.99733333 33.216 33.29066666l3.40266667 371.44533334c0.08533333 9.01333333-3.46666667 17.68533333-9.84533334 24.064L603.24266667 931.424c-22.176 22.176-50.336 36.256-79.296 39.65866667-4.416 0.512-8.8 0.768-13.13066667 0.768z m95.616-794.95466667L227.57333333 555.75466667c-11.36 11.36-18.80533333 25.80266667-20.42666666 39.60533333-0.74666667 6.4-0.82133333 18.336 7.12533333 26.29333333l275.56266667 275.56266667c7.95733333 7.95733333 19.88266667 7.88266667 26.29333333 7.12533333 13.80266667-1.62133333 28.23466667-9.06666667 39.60533333-20.42666666l378.88-378.88-2.976-324.43733334-325.20533333-3.70133333z"
          fill="#F7C777" p-id="2648"></path>
    <path d="M302.72 910.50666667c-8.59733333 0-17.19466667-3.28533333-23.75466667-9.84533334L52.30933333 674.016c-21.29066667-21.29066667-32.21333333-51.744-29.94133333-83.552 2.16533333-30.47466667 15.79733333-59.69066667 38.368-82.26133333L364.352 204.58666667c13.12-13.12 34.4-13.12 47.52 0 13.12 13.12 13.12 34.4 0 47.52L108.24533333 555.712c-10.976 10.976-17.84533333 25.376-18.848 39.50933333-0.896 12.544 2.816 23.648 10.432 31.264l226.656 226.656c13.12 13.12 13.12 34.4 0 47.52-6.57066667 6.57066667-15.168 9.84533333-23.76533333 9.84533334z m388.14933333-368.66133334c-31.06133333 0-62.12266667-11.81866667-85.77066666-35.46666666-22.912-22.912-35.53066667-53.36533333-35.53066667-85.77066667s12.61866667-62.85866667 35.53066667-85.77066667c47.296-47.28533333 124.24533333-47.296 171.53066666 0s47.296 124.24533333 0 171.53066667c-23.63733333 23.65866667-54.69866667 35.47733333-85.76 35.47733333z m62.00533334-59.22133333z m-62.00533334-116.08533333c-13.856 0-27.70133333 5.26933333-38.25066666 15.81866666-10.21866667 10.21866667-15.84 23.79733333-15.84 38.25066667s5.632 28.032 15.84 38.25066667c21.088 21.088 55.41333333 21.088 76.50133333 0 21.088-21.088 21.088-55.41333333 0-76.50133334-10.54933333-10.53866667-24.40533333-15.81866667-38.25066667-15.81866666z"
          fill="#F7C777" p-id="2649"></path>
</svg>